<svg xmlns="http://www.w3.org/2000/svg" xmlns:xlink="http://www.w3.org/1999/xlink" version="1.1" width="256" height="256" viewBox="0 0 256 256" xml:space="preserve">

<defs>
</defs>
<g style="stroke: none; stroke-width: 0; stroke-dasharray: none; stroke-linecap: butt; stroke-linejoin: miter; stroke-miterlimit: 10; fill: none; fill-rule: nonzero; opacity: 1;" transform="translate(1.4065934065934016 1.4065934065934016) scale(2.81 2.81)" >
	<polygon points="58.74,78.52 31.26,78.52 33.47,65.59 56.53,65.59 " style="stroke: none; stroke-width: 1; stroke-dasharray: none; stroke-linecap: butt; stroke-linejoin: miter; stroke-miterlimit: 10; fill: rgb(201,207,212); fill-rule: nonzero; opacity: 1;" transform="  matrix(1 0 0 1 0 0) "/>
	<rect x="24.48" y="78.52" rx="0" ry="0" width="41.04" height="6.75" style="stroke: none; stroke-width: 1; stroke-dasharray: none; stroke-linecap: butt; stroke-linejoin: miter; stroke-miterlimit: 10; fill: rgb(176,182,188); fill-rule: nonzero; opacity: 1;" transform=" matrix(1 0 0 1 0 0) "/>
	<path d="M 89 50.913 H 1 V 7.579 c 0 -1.573 1.275 -2.848 2.848 -2.848 h 82.304 C 87.725 4.732 89 6.007 89 7.579 V 50.913 z" style="stroke: none; stroke-width: 1; stroke-dasharray: none; stroke-linecap: butt; stroke-linejoin: miter; stroke-miterlimit: 10; fill: rgb(174,229,244); fill-rule: nonzero; opacity: 1;" transform=" matrix(1 0 0 1 0 0) " stroke-linecap="round" />
	<path d="M 86.152 65.59 H 3.848 C 2.275 65.59 1 64.315 1 62.743 v -11.83 h 88 v 11.83 C 89 64.315 87.725 65.59 86.152 65.59 z" style="stroke: none; stroke-width: 1; stroke-dasharray: none; stroke-linecap: butt; stroke-linejoin: miter; stroke-miterlimit: 10; fill: rgb(176,182,188); fill-rule: nonzero; opacity: 1;" transform=" matrix(1 0 0 1 0 0) " stroke-linecap="round" />
	<path d="M 89 51.912 H 1 c -0.552 0 -1 -0.447 -1 -1 V 7.58 c 0 -2.122 1.726 -3.848 3.848 -3.848 h 82.305 C 88.274 3.731 90 5.458 90 7.58 v 43.333 C 90 51.465 89.553 51.912 89 51.912 z M 2 49.912 h 86 V 7.58 c 0 -1.019 -0.829 -1.848 -1.848 -1.848 H 3.848 C 2.829 5.731 2 6.561 2 7.58 V 49.912 z" style="stroke: none; stroke-width: 1; stroke-dasharray: none; stroke-linecap: butt; stroke-linejoin: miter; stroke-miterlimit: 10; fill: rgb(0,0,0); fill-rule: nonzero; opacity: 1;" transform=" matrix(1 0 0 1 0 0) " stroke-linecap="round" />
	<path d="M 86.152 66.591 H 3.848 C 1.726 66.591 0 64.864 0 62.742 v -11.83 c 0 -0.553 0.448 -1 1 -1 h 88 c 0.553 0 1 0.447 1 1 v 11.83 C 90 64.864 88.274 66.591 86.152 66.591 z M 2 51.912 v 10.83 c 0 1.02 0.829 1.849 1.848 1.849 h 82.305 c 1.019 0 1.848 -0.829 1.848 -1.849 v -10.83 H 2 z" style="stroke: none; stroke-width: 1; stroke-dasharray: none; stroke-linecap: butt; stroke-linejoin: miter; stroke-miterlimit: 10; fill: rgb(0,0,0); fill-rule: nonzero; opacity: 1;" transform=" matrix(1 0 0 1 0 0) " stroke-linecap="round" />
	<path d="M 58.743 79.521 H 31.257 c -0.295 0 -0.575 -0.13 -0.765 -0.355 s -0.271 -0.523 -0.221 -0.813 l 2.217 -12.931 c 0.083 -0.48 0.499 -0.831 0.986 -0.831 h 23.051 c 0.487 0 0.903 0.351 0.985 0.831 l 2.218 12.931 c 0.05 0.29 -0.031 0.588 -0.221 0.813 C 59.317 79.392 59.038 79.521 58.743 79.521 z M 32.443 77.521 h 25.114 l -1.874 -10.931 H 34.317 L 32.443 77.521 z" style="stroke: none; stroke-width: 1; stroke-dasharray: none; stroke-linecap: butt; stroke-linejoin: miter; stroke-miterlimit: 10; fill: rgb(0,0,0); fill-rule: nonzero; opacity: 1;" transform=" matrix(1 0 0 1 0 0) " stroke-linecap="round" />
	<path d="M 65.521 86.269 H 24.479 c -0.552 0 -1 -0.447 -1 -1 v -6.747 c 0 -0.553 0.448 -1 1 -1 h 41.043 c 0.553 0 1 0.447 1 1 v 6.747 C 66.521 85.821 66.074 86.269 65.521 86.269 z M 25.479 84.269 h 39.043 v -4.747 H 25.479 V 84.269 z" style="stroke: none; stroke-width: 1; stroke-dasharray: none; stroke-linecap: butt; stroke-linejoin: miter; stroke-miterlimit: 10; fill: rgb(0,0,0); fill-rule: nonzero; opacity: 1;" transform=" matrix(1 0 0 1 0 0) " stroke-linecap="round" />
	<path d="M 18.163 23.184 c -1.046 0 -1.984 -0.602 -2.464 -1.53 c -0.096 -0.185 -0.196 -0.369 -0.302 -0.552 s -0.214 -0.361 -0.327 -0.537 c -0.564 -0.881 -0.616 -1.994 -0.093 -2.899 c 0.76 -1.316 0.309 -2.998 -1.007 -3.757 l -3.643 -2.103 c -1.315 -0.759 -2.998 -0.309 -3.757 1.007 l -0.001 0.001 c -0.515 0.892 -1.486 1.418 -2.515 1.368 c -0.447 -0.022 -0.896 -0.022 -1.346 0 C 2.083 14.211 1.493 14.007 1 13.657 v 8.527 c 0.737 -0.3 1.539 -0.473 2.384 -0.473 c 3.494 0 6.326 2.832 6.326 6.326 c 0 3.494 -2.832 6.326 -6.326 6.326 c -0.845 0 -1.647 -0.172 -2.384 -0.473 v 8.527 c 0.494 -0.351 1.086 -0.555 1.714 -0.524 c 0.447 0.022 0.896 0.022 1.346 0 c 1.027 -0.05 1.996 0.478 2.51 1.368 l 0 0.001 c 0.76 1.315 2.442 1.766 3.757 1.007 l 3.643 -2.103 c 1.315 -0.759 1.766 -2.442 1.007 -3.757 l 0 -0.001 c -0.514 -0.891 -0.487 -1.993 0.07 -2.858 c 0.244 -0.378 0.468 -0.767 0.673 -1.166 c 0.471 -0.916 1.412 -1.494 2.442 -1.494 h 0.001 c 1.519 0 2.75 -1.231 2.75 -2.75 v -4.207 C 20.913 24.415 19.682 23.184 18.163 23.184 z" style="stroke: none; stroke-width: 1; stroke-dasharray: none; stroke-linecap: butt; stroke-linejoin: miter; stroke-miterlimit: 10; fill: rgb(255,199,41); fill-rule: nonzero; opacity: 1;" transform=" matrix(1 0 0 1 0 0) " stroke-linecap="round" />
	<path d="M 8.958 45.637 c -1.297 0 -2.561 -0.672 -3.254 -1.875 c -0.329 -0.568 -0.931 -0.907 -1.596 -0.87 c -0.479 0.023 -0.965 0.023 -1.443 0 c -0.477 -0.024 -0.849 0.173 -1.086 0.341 c -0.306 0.217 -0.706 0.245 -1.038 0.073 C 0.208 43.135 0 42.792 0 42.418 V 13.657 c 0 -0.374 0.208 -0.717 0.541 -0.889 c 0.332 -0.17 0.733 -0.144 1.038 0.073 c 0.237 0.167 0.612 0.367 1.082 0.34 c 0.475 -0.022 0.961 -0.022 1.442 0 c 0.659 0.032 1.273 -0.301 1.602 -0.869 c 1.033 -1.792 3.332 -2.409 5.124 -1.374 l 3.643 2.104 c 0.868 0.501 1.488 1.31 1.748 2.277 c 0.259 0.968 0.126 1.979 -0.375 2.846 c -0.328 0.568 -0.302 1.281 0.069 1.859 c 0.121 0.188 0.237 0.38 0.35 0.575 c 0.114 0.197 0.222 0.395 0.325 0.593 c 0.316 0.61 0.919 0.99 1.576 0.99 c 2.068 0 3.75 1.683 3.75 3.75 v 4.207 c 0 2.068 -1.683 3.75 -3.75 3.75 c -0.657 0 -1.253 0.364 -1.555 0.951 c -0.219 0.427 -0.462 0.848 -0.721 1.25 c -0.355 0.552 -0.373 1.248 -0.045 1.815 c 1.034 1.792 0.418 4.091 -1.372 5.125 l -3.643 2.104 C 10.238 45.476 9.594 45.637 8.958 45.637 z M 4.196 40.89 c 1.337 0 2.566 0.706 3.24 1.872 c 0.483 0.836 1.557 1.124 2.392 0.641 L 13.47 41.3 c 0.405 -0.233 0.694 -0.611 0.815 -1.063 s 0.059 -0.923 -0.175 -1.328 c -0.705 -1.22 -0.668 -2.714 0.095 -3.9 c 0.226 -0.351 0.434 -0.712 0.624 -1.081 c 0.646 -1.257 1.923 -2.037 3.332 -2.037 c 0.966 0 1.752 -0.785 1.752 -1.75 v -4.207 c 0 -0.965 -0.785 -1.75 -1.75 -1.75 c -1.407 0 -2.691 -0.793 -3.352 -2.071 c -0.089 -0.171 -0.182 -0.342 -0.279 -0.511 c -0.098 -0.168 -0.199 -0.334 -0.303 -0.497 c -0.776 -1.21 -0.821 -2.72 -0.118 -3.938 c 0.234 -0.405 0.296 -0.877 0.175 -1.329 s -0.411 -0.829 -0.815 -1.063 l -3.643 -2.104 c -0.834 -0.482 -1.908 -0.196 -2.392 0.641 c -0.706 1.221 -2.034 1.932 -3.43 1.868 c -0.413 -0.02 -0.83 -0.021 -1.248 0 C 2.503 15.192 2.25 15.178 2 15.136 v 25.804 c 0.25 -0.042 0.507 -0.056 0.763 -0.045 c 0.415 0.021 0.831 0.021 1.248 0 C 4.073 40.892 4.134 40.89 4.196 40.89 z" style="stroke: none; stroke-width: 1; stroke-dasharray: none; stroke-linecap: butt; stroke-linejoin: miter; stroke-miterlimit: 10; fill: rgb(0,0,0); fill-rule: nonzero; opacity: 1;" transform=" matrix(1 0 0 1 0 0) " stroke-linecap="round" />
	<path d="M 3.384 35.364 c -0.942 0 -1.872 -0.184 -2.762 -0.546 C 0.246 34.664 0 34.298 0 33.891 V 22.184 c 0 -0.407 0.246 -0.772 0.623 -0.926 c 0.89 -0.362 1.819 -0.546 2.762 -0.546 c 4.04 0 7.326 3.287 7.326 7.327 C 10.71 32.077 7.424 35.364 3.384 35.364 z M 2 33.177 c 0.454 0.124 0.917 0.187 1.384 0.187 c 2.937 0 5.326 -2.389 5.326 -5.326 s -2.389 -5.327 -5.326 -5.327 c -0.467 0 -0.93 0.063 -1.384 0.187 V 33.177 z" style="stroke: none; stroke-width: 1; stroke-dasharray: none; stroke-linecap: butt; stroke-linejoin: miter; stroke-miterlimit: 10; fill: rgb(0,0,0); fill-rule: nonzero; opacity: 1;" transform=" matrix(1 0 0 1 0 0) " stroke-linecap="round" />
	<path d="M 80.647 14.832 H 52.494 c -0.553 0 -1 -0.448 -1 -1 s 0.447 -1 1 -1 h 28.153 c 0.553 0 1 0.448 1 1 S 81.2 14.832 80.647 14.832 z" style="stroke: none; stroke-width: 1; stroke-dasharray: none; stroke-linecap: butt; stroke-linejoin: miter; stroke-miterlimit: 10; fill: rgb(0,0,0); fill-rule: nonzero; opacity: 1;" transform=" matrix(1 0 0 1 0 0) " stroke-linecap="round" />
	<path d="M 33.327 29.253 H 20.913 c -0.552 0 -1 -0.448 -1 -1 s 0.448 -1 1 -1 h 12.414 c 0.552 0 1 0.448 1 1 S 33.879 29.253 33.327 29.253 z" style="stroke: none; stroke-width: 1; stroke-dasharray: none; stroke-linecap: butt; stroke-linejoin: miter; stroke-miterlimit: 10; fill: rgb(0,0,0); fill-rule: nonzero; opacity: 1;" transform=" matrix(1 0 0 1 0 0) " stroke-linecap="round" />
	<circle cx="37.181999999999995" cy="28.032" r="3.852" style="stroke: none; stroke-width: 1; stroke-dasharray: none; stroke-linecap: butt; stroke-linejoin: miter; stroke-miterlimit: 10; fill: rgb(255,199,41); fill-rule: nonzero; opacity: 1;" transform="  matrix(1 0 0 1 0 0) "/>
	<path d="M 37.179 32.89 c -2.675 0 -4.852 -2.177 -4.852 -4.852 s 2.177 -4.852 4.852 -4.852 s 4.852 2.177 4.852 4.852 S 39.854 32.89 37.179 32.89 z M 37.179 25.186 c -1.573 0 -2.852 1.279 -2.852 2.852 s 1.279 2.852 2.852 2.852 s 2.852 -1.279 2.852 -2.852 S 38.751 25.186 37.179 25.186 z" style="stroke: none; stroke-width: 1; stroke-dasharray: none; stroke-linecap: butt; stroke-linejoin: miter; stroke-miterlimit: 10; fill: rgb(0,0,0); fill-rule: nonzero; opacity: 1;" transform=" matrix(1 0 0 1 0 0) " stroke-linecap="round" />
	<path d="M 15.665 21.617 c -0.278 0 -0.555 -0.115 -0.753 -0.341 c -0.364 -0.416 -0.322 -1.047 0.094 -1.411 l 7.582 -6.638 c 0.182 -0.16 0.417 -0.248 0.659 -0.248 h 10.046 c 0.552 0 1 0.448 1 1 s -0.448 1 -1 1 h -9.67 l -7.299 6.391 C 16.134 21.536 15.899 21.617 15.665 21.617 z" style="stroke: none; stroke-width: 1; stroke-dasharray: none; stroke-linecap: butt; stroke-linejoin: miter; stroke-miterlimit: 10; fill: rgb(0,0,0); fill-rule: nonzero; opacity: 1;" transform=" matrix(1 0 0 1 0 0) " stroke-linecap="round" />
	<circle cx="37.141999999999996" cy="13.762" r="3.852" style="stroke: none; stroke-width: 1; stroke-dasharray: none; stroke-linecap: butt; stroke-linejoin: miter; stroke-miterlimit: 10; fill: rgb(255,199,41); fill-rule: nonzero; opacity: 1;" transform="  matrix(1 0 0 1 0 0) "/>
	<path d="M 37.145 18.616 c -2.675 0 -4.852 -2.177 -4.852 -4.852 s 2.177 -4.852 4.852 -4.852 s 4.852 2.177 4.852 4.852 S 39.82 18.616 37.145 18.616 z M 37.145 10.912 c -1.573 0 -2.852 1.279 -2.852 2.852 s 1.279 2.852 2.852 2.852 s 2.852 -1.279 2.852 -2.852 S 38.717 10.912 37.145 10.912 z" style="stroke: none; stroke-width: 1; stroke-dasharray: none; stroke-linecap: butt; stroke-linejoin: miter; stroke-miterlimit: 10; fill: rgb(0,0,0); fill-rule: nonzero; opacity: 1;" transform=" matrix(1 0 0 1 0 0) " stroke-linecap="round" />
	<path d="M 33.327 43.096 H 23.281 c -0.242 0 -0.477 -0.088 -0.659 -0.248 L 15.04 36.21 c -0.416 -0.364 -0.458 -0.996 -0.094 -1.411 c 0.363 -0.416 0.995 -0.458 1.411 -0.094 l 7.299 6.391 h 9.67 c 0.552 0 1 0.448 1 1 S 33.879 43.096 33.327 43.096 z" style="stroke: none; stroke-width: 1; stroke-dasharray: none; stroke-linecap: butt; stroke-linejoin: miter; stroke-miterlimit: 10; fill: rgb(0,0,0); fill-rule: nonzero; opacity: 1;" transform=" matrix(1 0 0 1 0 0) " stroke-linecap="round" />
	<circle cx="37.181999999999995" cy="42.312" r="3.852" style="stroke: none; stroke-width: 1; stroke-dasharray: none; stroke-linecap: butt; stroke-linejoin: miter; stroke-miterlimit: 10; fill: rgb(255,199,41); fill-rule: nonzero; opacity: 1;" transform="  matrix(1 0 0 1 0 0) "/>
	<path d="M 37.179 47.163 c -2.675 0 -4.852 -2.176 -4.852 -4.852 s 2.177 -4.852 4.852 -4.852 s 4.852 2.177 4.852 4.852 S 39.854 47.163 37.179 47.163 z M 37.179 39.459 c -1.573 0 -2.852 1.279 -2.852 2.852 c 0 1.572 1.279 2.852 2.852 2.852 s 2.852 -1.279 2.852 -2.852 C 40.031 40.739 38.751 39.459 37.179 39.459 z" style="stroke: none; stroke-width: 1; stroke-dasharray: none; stroke-linecap: butt; stroke-linejoin: miter; stroke-miterlimit: 10; fill: rgb(0,0,0); fill-rule: nonzero; opacity: 1;" transform=" matrix(1 0 0 1 0 0) " stroke-linecap="round" />
	<path d="M 80.647 24.302 H 66.57 c -0.553 0 -1 -0.448 -1 -1 s 0.447 -1 1 -1 h 14.077 c 0.553 0 1 0.448 1 1 S 81.2 24.302 80.647 24.302 z" style="stroke: none; stroke-width: 1; stroke-dasharray: none; stroke-linecap: butt; stroke-linejoin: miter; stroke-miterlimit: 10; fill: rgb(0,0,0); fill-rule: nonzero; opacity: 1;" transform=" matrix(1 0 0 1 0 0) " stroke-linecap="round" />
	<path d="M 59.9 24.302 h -7.406 c -0.553 0 -1 -0.448 -1 -1 s 0.447 -1 1 -1 H 59.9 c 0.553 0 1 0.448 1 1 S 60.453 24.302 59.9 24.302 z" style="stroke: none; stroke-width: 1; stroke-dasharray: none; stroke-linecap: butt; stroke-linejoin: miter; stroke-miterlimit: 10; fill: rgb(0,0,0); fill-rule: nonzero; opacity: 1;" transform=" matrix(1 0 0 1 0 0) " stroke-linecap="round" />
	<path d="M 80.647 33.773 H 52.494 c -0.553 0 -1 -0.448 -1 -1 s 0.447 -1 1 -1 h 28.153 c 0.553 0 1 0.448 1 1 S 81.2 33.773 80.647 33.773 z" style="stroke: none; stroke-width: 1; stroke-dasharray: none; stroke-linecap: butt; stroke-linejoin: miter; stroke-miterlimit: 10; fill: rgb(0,0,0); fill-rule: nonzero; opacity: 1;" transform=" matrix(1 0 0 1 0 0) " stroke-linecap="round" />
	<path d="M 71.177 43.244 H 52.494 c -0.553 0 -1 -0.448 -1 -1 s 0.447 -1 1 -1 h 18.683 c 0.553 0 1 0.448 1 1 S 71.729 43.244 71.177 43.244 z" style="stroke: none; stroke-width: 1; stroke-dasharray: none; stroke-linecap: butt; stroke-linejoin: miter; stroke-miterlimit: 10; fill: rgb(0,0,0); fill-rule: nonzero; opacity: 1;" transform=" matrix(1 0 0 1 0 0) " stroke-linecap="round" />
</g>
</svg>